<svg xmlns="http://www.w3.org/2000/svg" width="1000" height="260" viewBox="0 0 1000 260" role="img" aria-label="Roma AI logo">
    <defs>
      <filter id="softShadow" x="-20%" y="-20%" width="140%" height="140%">
        <feDropShadow dx="0" dy="8" stdDeviation="10" flood-color="#0f172a" flood-opacity="0.12"/>
      </filter>
    </defs>
    
    
  <g transform="translate(130,130) scale(0.88)" fill="none" stroke-linecap="round" stroke-linejoin="round">
      <path d="M0,-54 C-24,-54 -39,-39 -39,-20 C-55,-15 -57,10 -41,18 C-46,39 -25,57 -3,47" stroke="#ffffff" stroke-width="7"/>
      <path d="M0,-54 C24,-54 39,-39 39,-20 C55,-15 57,10 41,18 C46,39 25,57 3,47" stroke="#356ae6" stroke-width="7"/>
      <path d="M0,-56 L0,52" stroke="#ffffff" stroke-width="6"/>
      <path d="M-28,-31 L-13,-31 L-13,-12" stroke="#ffffff" stroke-width="5"/>
      <path d="M-28,0 L-12,0" stroke="#ffffff" stroke-width="5"/>
      <path d="M-26,28 L-10,28 L-10,12" stroke="#ffffff" stroke-width="5"/>
      <path d="M13,-31 L29,-31" stroke="#356ae6" stroke-width="5"/>
      <path d="M12,-10 L31,-10 L31,5" stroke="#356ae6" stroke-width="5"/>
      <path d="M11,18 L27,18 L27,35" stroke="#356ae6" stroke-width="5"/>
      <circle cx="-29" cy="-31" r="6" fill="#356ae6" stroke="none"/>
      <circle cx="-12" cy="-12" r="5" fill="#ffffff" stroke="none"/>
      <circle cx="-29" cy="0" r="6" fill="#356ae6" stroke="none"/>
      <circle cx="-25" cy="28" r="5" fill="#ffffff" stroke="none"/>
      <circle cx="29" cy="-31" r="6" fill="#356ae6" stroke="none"/>
      <circle cx="31" cy="5" r="5" fill="#ffffff" stroke="none"/>
      <circle cx="27" cy="35" r="6" fill="#356ae6" stroke="none"/>
      <circle cx="0" cy="-10" r="4" fill="#356ae6" stroke="none"/>
    </g>
  <text x="245" y="165" font-family="'Poppins','Inter','Montserrat','Arial',sans-serif" font-weight="600" font-size="90" letter-spacing="-1" fill="#ffffff">Roma</text>
  <text x="560" y="165" font-family="'Poppins','Inter','Montserrat','Arial',sans-serif" font-weight="600" font-size="90" letter-spacing="-1" fill="#356ae6">AI</text>

</svg>